<?xml version="1.0" encoding="UTF-8"?>
<svg id="Livello_1" xmlns="http://www.w3.org/2000/svg" version="1.1" viewBox="0 0 794.1 244.6">
  <!-- Generator: Adobe Illustrator 30.0.0, SVG Export Plug-In . SVG Version: 2.1.1 Build 123)  -->
  <path d="M0,241.4V0h63.8c25.6,0,45.4,6.1,59.4,18.3,13.5,11.8,20.2,25.7,20.2,41.8s-9.5,34-28.5,44.1c30.6,12.7,45.9,33.3,45.9,62s-8.4,41.6-25.2,55.4c-16.1,13.2-37.5,19.8-64,19.8H0ZM43.4,39.1v50.2h19.5c13.5,0,23.1-2.4,28.8-7.1,5.6-4.6,8.4-10.6,8.4-18s-3.1-13.6-9.3-18.5c-5.6-4.4-14.9-6.6-27.8-6.6h-19.5ZM43.4,128.4v73.9h27.5c15.3,0,27.3-3.6,35.9-10.9,7.1-6,10.6-14.7,10.6-26.1s-3.6-19-10.9-26.2c-7.2-7.1-19-10.6-35.6-10.6h-27.5Z"/>
  <path d="M243.4,244.6c-24.2,0-43.8-8.9-59-26.7-14-16.5-21.1-38.2-21.1-65s7-48.4,21.1-65c15.2-17.8,34.8-26.7,59-26.7s43.8,8.9,59,26.7c14,16.5,21.1,38.2,21.1,65s-7,48.4-21.1,65c-15.2,17.8-34.8,26.7-59,26.7ZM243.4,101.4c-12,0-21,4.8-26.8,14.5-5.2,8.8-7.8,21.1-7.8,37s2.6,29.1,7.8,37c6.5,9.7,15.6,14.5,27.3,14.5s19.9-4.8,26.3-14.5c5.2-8,7.8-20.3,7.8-37s-2.6-28.1-7.8-36.3c-6.3-10.1-15.2-15.1-26.8-15.1Z"/>
  <path d="M399.9,243c-24.2,0-43.8-8.9-59-26.7-14-16.5-21.1-38.2-21.1-65s7-48.4,21.1-65c15.2-17.8,34.8-26.7,59-26.7s43.8,8.9,59,26.7c14,16.5,21.1,38.2,21.1,65s-7,48.4-21.1,65c-15.2,17.8-34.8,26.7-59,26.7ZM399.9,99.8c-12,0-21,4.8-26.8,14.5-5.2,8.8-7.8,21.1-7.8,37s2.6,29.1,7.8,37c6.5,9.7,15.6,14.5,27.3,14.5s19.9-4.8,26.3-14.5c5.2-8,7.8-20.3,7.8-37s-2.6-28.1-7.8-36.3c-6.3-10.1-15.2-15.1-26.8-15.1Z"/>
  <path d="M486.2,241.4V0h43.4v169.3c28.2-28.3,47.5-63.3,57.8-104.9h43.4c-7.6,31.3-20.8,60.7-39.6,88.2,16.8,25.7,31.1,55.4,42.6,88.8h-43.8c-7.4-21.1-16.1-39.9-26.1-56.2-9.8,10.2-21.2,20.5-34.4,30.9v25.3h-43.4Z"/>
  <path d="M646.3,241.4V64.4h43.4v16.4c10.9-13.1,25.5-19.6,43.8-19.6s32.2,6.3,44.1,19c10.9,11.6,16.4,29.1,16.4,52.6h-43.4c0-11.2-2.1-19.3-6.4-24.3-4.6-5.5-10.5-8.2-17.7-8.2s-17.6,3.6-24.5,10.8c-8.2,8.6-12.2,21-12.2,37.3v93h-43.4Z"/>
</svg>